<svg width="146" height="18" viewBox="0 0 146 18" fill="none" xmlns="http://www.w3.org/2000/svg">
<path fill-rule="evenodd" clip-rule="evenodd" d="M0.43857 5.43934C1.02333 4.85355 1.97141 4.85355 2.55617 5.43934L12.5386 15.4393C13.1234 16.0251 13.1234 16.9749 12.5386 17.5607C11.9539 18.1464 11.0058 18.1464 10.421 17.5607L0.438569 7.56066C-0.14619 6.97487 -0.14619 6.02513 0.43857 5.43934Z" fill="#191919"/>
<path fill-rule="evenodd" clip-rule="evenodd" d="M1.29924e-07 1.5C1.29924e-07 0.671573 0.670396 0 1.49737 0H11.4798C12.3068 0 12.9772 0.671573 12.9772 1.5C12.9772 2.32843 12.3068 3 11.4798 3H1.49737C0.670396 3 1.29924e-07 2.32843 1.29924e-07 1.5Z" fill="#191919"/>
<path fill-rule="evenodd" clip-rule="evenodd" d="M2.99474 8L2.99474 16.5C2.99474 17.3284 2.32435 18 1.49737 18C0.670397 18 9.33622e-07 17.3284 8.97474e-07 16.5L1.04125e-07 6.5C8.67663e-08 6.10218 0.157759 5.72064 0.43857 5.43934C0.719381 5.15804 1.10024 5 1.49737 5L11.4798 5C12.3068 5 12.9772 5.67157 12.9772 6.5C12.9772 7.32843 12.3068 8 11.4798 8L2.99474 8Z" fill="#191919"/>
<path d="M26.7485 14.8397L24.0087 9.99603H22.8345V14.8397H20.3439V2.40995H25.005C25.9657 2.40995 26.784 2.58209 27.4601 2.92637C28.1361 3.25878 28.6402 3.71585 28.9723 4.29757C29.3162 4.86741 29.4882 5.50849 29.4882 6.2208C29.4882 7.03996 29.251 7.78194 28.7766 8.44676C28.3022 9.09971 27.5965 9.55084 26.6595 9.80015L29.6305 14.8397H26.7485ZM22.8345 8.12623H24.916C25.5921 8.12623 26.0961 7.96596 26.4282 7.64542C26.7603 7.31301 26.9264 6.85594 26.9264 6.27422C26.9264 5.70438 26.7603 5.26512 26.4282 4.95645C26.0961 4.63591 25.5921 4.47565 24.916 4.47565H22.8345V8.12623Z" fill="#191919"/>
<path d="M40.903 9.6933C40.903 10.0495 40.8793 10.37 40.8319 10.6549H33.6267C33.686 11.3672 33.9351 11.9252 34.3739 12.3288C34.8128 12.7325 35.3524 12.9343 35.9929 12.9343C36.918 12.9343 37.5762 12.5366 37.9676 11.7412H40.654C40.3693 12.6909 39.8237 13.4745 39.0172 14.0918C38.2107 14.6973 37.2204 15 36.0462 15C35.0974 15 34.2435 14.7922 33.4844 14.3767C32.7372 13.9493 32.1501 13.3498 31.7231 12.5782C31.308 11.8065 31.1005 10.9161 31.1005 9.90699C31.1005 8.88602 31.308 7.9897 31.7231 7.21803C32.1382 6.44636 32.7194 5.85277 33.4666 5.43726C34.2138 5.02175 35.0737 4.81399 36.0462 4.81399C36.9832 4.81399 37.8194 5.01581 38.5547 5.41945C39.3019 5.82309 39.8771 6.39888 40.2804 7.1468C40.6955 7.88285 40.903 8.73169 40.903 9.6933ZM38.3234 8.98099C38.3116 8.33992 38.0803 7.82943 37.6296 7.44953C37.1789 7.05776 36.6274 6.86188 35.9751 6.86188C35.3583 6.86188 34.8365 7.05183 34.4095 7.43173C33.9944 7.79975 33.7394 8.31617 33.6445 8.98099H38.3234Z" fill="#191919"/>
<path d="M47.2398 7.02215H45.5141V14.8397H42.9879V7.02215H41.8671V4.97426H42.9879V4.47565C42.9879 3.26472 43.3318 2.37434 44.0197 1.80449C44.7076 1.23464 45.7454 0.967527 47.1331 1.00314V3.10445C46.5282 3.09258 46.1071 3.19349 45.8699 3.40718C45.6327 3.62088 45.5141 4.00671 45.5141 4.56468V4.97426H47.2398V7.02215Z" fill="#191919"/>
<path d="M53.2303 15C52.2815 15 51.4276 14.7922 50.6685 14.3767C49.9094 13.9493 49.3105 13.3498 48.8717 12.5782C48.4447 11.8065 48.2312 10.9161 48.2312 9.90699C48.2312 8.89789 48.4506 8.00751 48.8895 7.23584C49.3401 6.46417 49.951 5.87058 50.7219 5.45507C51.4928 5.02768 52.3527 4.81399 53.3015 4.81399C54.2503 4.81399 55.1102 5.02768 55.8811 5.45507C56.6521 5.87058 57.2569 6.46417 57.6958 7.23584C58.1465 8.00751 58.3718 8.89789 58.3718 9.90699C58.3718 10.9161 58.1405 11.8065 57.678 12.5782C57.2273 13.3498 56.6105 13.9493 55.8278 14.3767C55.0568 14.7922 54.191 15 53.2303 15ZM53.2303 12.8275C53.681 12.8275 54.1021 12.7206 54.4935 12.5069C54.8967 12.2814 55.2169 11.9489 55.4542 11.5097C55.6914 11.0704 55.81 10.5362 55.81 9.90699C55.81 8.96912 55.5609 8.25088 55.0628 7.75226C54.5765 7.24178 53.9775 6.98653 53.2659 6.98653C52.5543 6.98653 51.9554 7.24178 51.4691 7.75226C50.9947 8.25088 50.7575 8.96912 50.7575 9.90699C50.7575 10.8449 50.9887 11.569 51.4513 12.0795C51.9257 12.5782 52.5187 12.8275 53.2303 12.8275Z" fill="#191919"/>
<path d="M66.0341 14.8397L62.6895 10.6371V14.8397H60.1988V1.66203H62.6895V9.15907L65.9985 4.97426H69.2364L64.8955 9.9248L69.272 14.8397H66.0341Z" fill="#191919"/>
<path d="M79.8926 4.97426V14.8397H77.3842V13.5932C77.0639 14.0206 76.6429 14.3589 76.121 14.6082C75.611 14.8457 75.0536 14.9644 74.4487 14.9644C73.6778 14.9644 72.9958 14.8041 72.4028 14.4836C71.8098 14.1512 71.3413 13.6704 70.9974 13.0412C70.6653 12.4001 70.4992 11.6403 70.4992 10.7618V4.97426H72.9899V10.4056C72.9899 11.1892 73.1856 11.7946 73.577 12.222C73.9684 12.6375 74.5021 12.8453 75.1781 12.8453C75.866 12.8453 76.4057 12.6375 76.7971 12.222C77.1885 11.7946 77.3842 11.1892 77.3842 10.4056V4.97426H79.8926Z" fill="#191919"/>
<path d="M86.1217 15C85.3152 15 84.5917 14.8575 83.9512 14.5726C83.3108 14.2758 82.8008 13.8781 82.4212 13.3795C82.0536 12.8809 81.8519 12.3288 81.8164 11.7234H84.3248C84.3723 12.1033 84.5561 12.4179 84.8763 12.6672C85.2084 12.9165 85.6176 13.0412 86.1039 13.0412C86.5783 13.0412 86.946 12.9462 87.2069 12.7562C87.4797 12.5663 87.6161 12.3229 87.6161 12.0261C87.6161 11.7056 87.45 11.4681 87.1179 11.3138C86.7977 11.1476 86.2818 10.9695 85.5702 10.7796C84.8348 10.6015 84.2299 10.4175 83.7555 10.2275C83.293 10.0376 82.8897 9.74673 82.5458 9.35496C82.2137 8.96319 82.0476 8.43489 82.0476 7.77007C82.0476 7.22397 82.2018 6.72535 82.5102 6.27422C82.8304 5.82309 83.2811 5.46694 83.8623 5.20576C84.4553 4.94458 85.1491 4.81399 85.9438 4.81399C87.1179 4.81399 88.0549 5.11079 88.7547 5.70438C89.4544 6.2861 89.8399 7.07557 89.9111 8.0728H87.5271C87.4915 7.68103 87.3255 7.37237 87.029 7.1468C86.7443 6.90936 86.3589 6.79065 85.8726 6.79065C85.4219 6.79065 85.072 6.87375 84.823 7.03996C84.5858 7.20616 84.4672 7.43766 84.4672 7.73446C84.4672 8.06687 84.6332 8.32211 84.9653 8.50019C85.2974 8.66639 85.8133 8.83853 86.5131 9.01661C87.2247 9.19469 87.8118 9.3787 88.2743 9.56865C88.7369 9.7586 89.1342 10.0554 89.4663 10.459C89.8102 10.8508 89.9882 11.3732 90 12.0261C90 12.596 89.8399 13.1064 89.5197 13.5576C89.2113 14.0087 88.7606 14.3649 88.1676 14.626C87.5864 14.8753 86.9045 15 86.1217 15Z" fill="#191919"/>
<path d="M108.09 2.31V3.642H104.508V15H102.87V3.642H99.288V2.31H108.09ZM114.2 4.992C115.148 4.992 115.994 5.196 116.738 5.604C117.494 6.012 118.082 6.6 118.502 7.368C118.934 8.136 119.15 9.036 119.15 10.068C119.15 11.1 118.934 12 118.502 12.768C118.082 13.524 117.494 14.106 116.738 14.514C115.994 14.922 115.148 15.126 114.2 15.126C113.252 15.126 112.4 14.922 111.644 14.514C110.9 14.106 110.312 13.524 109.88 12.768C109.448 12 109.232 11.1 109.232 10.068C109.232 9.036 109.448 8.136 109.88 7.368C110.312 6.6 110.9 6.012 111.644 5.604C112.4 5.196 113.252 4.992 114.2 4.992ZM114.2 6.432C113.612 6.432 113.066 6.564 112.562 6.828C112.07 7.092 111.668 7.5 111.356 8.052C111.056 8.592 110.906 9.264 110.906 10.068C110.906 10.86 111.056 11.532 111.356 12.084C111.668 12.624 112.07 13.026 112.562 13.29C113.066 13.554 113.612 13.686 114.2 13.686C114.788 13.686 115.328 13.554 115.82 13.29C116.324 13.026 116.726 12.624 117.026 12.084C117.338 11.532 117.494 10.86 117.494 10.068C117.494 9.264 117.338 8.592 117.026 8.052C116.726 7.5 116.324 7.092 115.82 6.828C115.328 6.564 114.788 6.432 114.2 6.432ZM125.767 4.992C126.715 4.992 127.561 5.196 128.305 5.604C129.061 6.012 129.649 6.6 130.069 7.368C130.501 8.136 130.717 9.036 130.717 10.068C130.717 11.1 130.501 12 130.069 12.768C129.649 13.524 129.061 14.106 128.305 14.514C127.561 14.922 126.715 15.126 125.767 15.126C124.819 15.126 123.967 14.922 123.211 14.514C122.467 14.106 121.879 13.524 121.447 12.768C121.015 12 120.799 11.1 120.799 10.068C120.799 9.036 121.015 8.136 121.447 7.368C121.879 6.6 122.467 6.012 123.211 5.604C123.967 5.196 124.819 4.992 125.767 4.992ZM125.767 6.432C125.179 6.432 124.633 6.564 124.129 6.828C123.637 7.092 123.235 7.5 122.923 8.052C122.623 8.592 122.473 9.264 122.473 10.068C122.473 10.86 122.623 11.532 122.923 12.084C123.235 12.624 123.637 13.026 124.129 13.29C124.633 13.554 125.179 13.686 125.767 13.686C126.355 13.686 126.895 13.554 127.387 13.29C127.891 13.026 128.293 12.624 128.593 12.084C128.905 11.532 129.061 10.86 129.061 10.068C129.061 9.264 128.905 8.592 128.593 8.052C128.293 7.5 127.891 7.092 127.387 6.828C126.895 6.564 126.355 6.432 125.767 6.432ZM134.489 1.68V15H132.851V1.68H134.489ZM140.219 4.992C141.335 4.992 142.229 5.286 142.901 5.874C143.585 6.45 143.999 7.23 144.143 8.214H142.577C142.505 7.626 142.259 7.146 141.839 6.774C141.431 6.39 140.879 6.198 140.183 6.198C139.595 6.198 139.133 6.342 138.797 6.63C138.473 6.906 138.311 7.284 138.311 7.764C138.311 8.124 138.419 8.418 138.635 8.646C138.863 8.862 139.139 9.03 139.463 9.15C139.799 9.258 140.255 9.378 140.831 9.51C141.563 9.678 142.151 9.852 142.595 10.032C143.051 10.2 143.435 10.476 143.747 10.86C144.071 11.244 144.233 11.76 144.233 12.408C144.233 13.212 143.927 13.866 143.315 14.37C142.715 14.874 141.911 15.126 140.903 15.126C139.727 15.126 138.767 14.844 138.023 14.28C137.279 13.716 136.841 12.93 136.709 11.922H138.293C138.353 12.522 138.611 13.008 139.067 13.38C139.535 13.752 140.147 13.938 140.903 13.938C141.467 13.938 141.905 13.794 142.217 13.506C142.541 13.218 142.703 12.84 142.703 12.372C142.703 11.988 142.589 11.682 142.361 11.454C142.133 11.226 141.851 11.052 141.515 10.932C141.179 10.812 140.717 10.686 140.129 10.554C139.397 10.386 138.809 10.218 138.365 10.05C137.933 9.882 137.561 9.618 137.249 9.258C136.949 8.886 136.799 8.388 136.799 7.764C136.799 6.936 137.105 6.27 137.717 5.766C138.329 5.25 139.163 4.992 140.219 4.992Z" fill="#191919"/>
</svg>
